# xmcd CD database file generated by Grip 3.2.0
# 
# Track frame offsets:
#       150
#       10603
#       30864
#       53228
#       71546
#       83901
#       101132
#       121881
#       138718
#       150808
#       169841
#       181710
#       196752
#       213357
# 
# Disc length: 3143 seconds
# 
# Revision: 2
# Processed by: cddbd v1.5.2PL0 Copyright (c) Steve Scherf et al.
# Submitted via: Grip 3.2.0
# 
DISCID=a80c450e
DTITLE=Watermelon Slim And The Workers - No Paid Holidays
DYEAR=2008
DGENRE=Blues
TTITLE0=Blues For Howard
TTITLE1=Archetypal Blues No. 2
TTITLE2=Call My Job
TTITLE3=Dad In The Distance
TTITLE4=You're The One I Need
TTITLE5=Bubba's Blues
TTITLE6=And When I Die
TTITLE7=Into The Sunset
TTITLE8=Gearzy's Boogie
TTITLE9=This Traveling Life
TTITLE10=Max The Baseball Clown
TTITLE11=The Bloody Burmese Blues
TTITLE12=I've Got A Toothache
TTITLE13=Everybody's Down On Me
EXTD=
EXTT0=
EXTT1=
EXTT2=
EXTT3=
EXTT4=
EXTT5=
EXTT6=
EXTT7=
EXTT8=
EXTT9=
EXTT10=
EXTT11=
EXTT12=
EXTT13=
PLAYORDER=
